<mxfile>
    <diagram id="YBep1us1Uwxz6Q6gv9e1" name="core">
        <mxGraphModel dx="1673" dy="920" grid="1" gridSize="10" guides="1" tooltips="1" connect="1" arrows="1" fold="1" page="1" pageScale="1" pageWidth="827" pageHeight="1169" math="0" shadow="0">
            <root>
                <mxCell id="0"/>
                <mxCell id="1" parent="0"/>
                <mxCell id="2" value="A" style="rounded=0;whiteSpace=wrap;html=1;" vertex="1" parent="1">
                    <mxGeometry x="220" y="210" width="50" height="40" as="geometry"/>
                </mxCell>
                <mxCell id="23" style="edgeStyle=orthogonalEdgeStyle;rounded=0;orthogonalLoop=1;jettySize=auto;html=1;exitX=0.25;exitY=0;exitDx=0;exitDy=0;entryX=0.75;entryY=0;entryDx=0;entryDy=0;curved=1;" edge="1" parent="1" source="3" target="2">
                    <mxGeometry relative="1" as="geometry">
                        <Array as="points">
                            <mxPoint x="283" y="190"/>
                            <mxPoint x="258" y="190"/>
                        </Array>
                    </mxGeometry>
                </mxCell>
                <mxCell id="3" value="B" style="rounded=0;whiteSpace=wrap;html=1;" vertex="1" parent="1">
                    <mxGeometry x="270" y="210" width="50" height="40" as="geometry"/>
                </mxCell>
                <mxCell id="24" style="edgeStyle=orthogonalEdgeStyle;curved=1;rounded=0;orthogonalLoop=1;jettySize=auto;html=1;exitX=0.25;exitY=0;exitDx=0;exitDy=0;entryX=0.75;entryY=0;entryDx=0;entryDy=0;" edge="1" parent="1" source="4" target="3">
                    <mxGeometry relative="1" as="geometry">
                        <Array as="points">
                            <mxPoint x="333" y="190"/>
                            <mxPoint x="308" y="190"/>
                        </Array>
                    </mxGeometry>
                </mxCell>
                <mxCell id="34" style="edgeStyle=none;rounded=0;orthogonalLoop=1;jettySize=auto;html=1;exitX=1;exitY=1;exitDx=0;exitDy=0;entryX=0;entryY=0;entryDx=0;entryDy=0;dashed=1;" edge="1" parent="1" source="4" target="28">
                    <mxGeometry relative="1" as="geometry"/>
                </mxCell>
                <mxCell id="35" value="2. Diff" style="edgeLabel;html=1;align=center;verticalAlign=middle;resizable=0;points=[];" vertex="1" connectable="0" parent="34">
                    <mxGeometry x="-0.6624" y="5" relative="1" as="geometry">
                        <mxPoint as="offset"/>
                    </mxGeometry>
                </mxCell>
                <mxCell id="4" value="C" style="rounded=0;whiteSpace=wrap;html=1;" vertex="1" parent="1">
                    <mxGeometry x="320" y="210" width="50" height="40" as="geometry"/>
                </mxCell>
                <mxCell id="5" value="Server Stream" style="text;html=1;strokeColor=none;fillColor=none;align=center;verticalAlign=middle;whiteSpace=wrap;rounded=0;" vertex="1" parent="1">
                    <mxGeometry x="120" y="220" width="80" height="20" as="geometry"/>
                </mxCell>
                <mxCell id="7" value="A" style="rounded=0;whiteSpace=wrap;html=1;" vertex="1" parent="1">
                    <mxGeometry x="220" y="320" width="50" height="40" as="geometry"/>
                </mxCell>
                <mxCell id="25" style="edgeStyle=orthogonalEdgeStyle;curved=1;rounded=0;orthogonalLoop=1;jettySize=auto;html=1;exitX=0.25;exitY=0;exitDx=0;exitDy=0;entryX=0.75;entryY=0;entryDx=0;entryDy=0;" edge="1" parent="1" source="10" target="7">
                    <mxGeometry relative="1" as="geometry">
                        <Array as="points">
                            <mxPoint x="283" y="300"/>
                            <mxPoint x="258" y="300"/>
                        </Array>
                    </mxGeometry>
                </mxCell>
                <mxCell id="10" value="D'" style="rounded=0;whiteSpace=wrap;html=1;" vertex="1" parent="1">
                    <mxGeometry x="270" y="320" width="50" height="40" as="geometry"/>
                </mxCell>
                <mxCell id="21" style="rounded=0;orthogonalLoop=1;jettySize=auto;html=1;exitX=0.5;exitY=0;exitDx=0;exitDy=0;dashed=1;" edge="1" parent="1" source="11">
                    <mxGeometry relative="1" as="geometry">
                        <mxPoint x="500" y="250" as="targetPoint"/>
                    </mxGeometry>
                </mxCell>
                <mxCell id="22" value="1. Rebase" style="edgeLabel;html=1;align=center;verticalAlign=middle;resizable=0;points=[];" vertex="1" connectable="0" parent="21">
                    <mxGeometry x="-0.336" y="-1" relative="1" as="geometry">
                        <mxPoint x="-16" as="offset"/>
                    </mxGeometry>
                </mxCell>
                <mxCell id="26" style="edgeStyle=orthogonalEdgeStyle;curved=1;rounded=0;orthogonalLoop=1;jettySize=auto;html=1;exitX=0.25;exitY=0;exitDx=0;exitDy=0;entryX=0.75;entryY=0;entryDx=0;entryDy=0;" edge="1" parent="1" source="11" target="10">
                    <mxGeometry relative="1" as="geometry">
                        <Array as="points">
                            <mxPoint x="333" y="300"/>
                            <mxPoint x="308" y="300"/>
                        </Array>
                    </mxGeometry>
                </mxCell>
                <mxCell id="32" style="rounded=0;orthogonalLoop=1;jettySize=auto;html=1;exitX=1;exitY=0.5;exitDx=0;exitDy=0;entryX=0;entryY=0.5;entryDx=0;entryDy=0;dashed=1;" edge="1" parent="1" source="11" target="28">
                    <mxGeometry relative="1" as="geometry"/>
                </mxCell>
                <mxCell id="11" value="E'" style="rounded=0;whiteSpace=wrap;html=1;" vertex="1" parent="1">
                    <mxGeometry x="320" y="320" width="50" height="40" as="geometry"/>
                </mxCell>
                <mxCell id="12" value="Client1 Stream" style="text;html=1;strokeColor=none;fillColor=none;align=center;verticalAlign=middle;whiteSpace=wrap;rounded=0;" vertex="1" parent="1">
                    <mxGeometry x="110" y="330" width="90" height="20" as="geometry"/>
                </mxCell>
                <mxCell id="19" style="edgeStyle=orthogonalEdgeStyle;curved=1;rounded=0;orthogonalLoop=1;jettySize=auto;html=1;exitX=0.25;exitY=0;exitDx=0;exitDy=0;entryX=0.75;entryY=0;entryDx=0;entryDy=0;" edge="1" parent="1" source="17" target="4">
                    <mxGeometry relative="1" as="geometry">
                        <Array as="points">
                            <mxPoint x="493" y="180"/>
                            <mxPoint x="358" y="180"/>
                        </Array>
                    </mxGeometry>
                </mxCell>
                <mxCell id="17" value="D" style="rounded=0;whiteSpace=wrap;html=1;" vertex="1" parent="1">
                    <mxGeometry x="480" y="210" width="50" height="40" as="geometry"/>
                </mxCell>
                <mxCell id="27" style="edgeStyle=orthogonalEdgeStyle;curved=1;rounded=0;orthogonalLoop=1;jettySize=auto;html=1;exitX=0.5;exitY=0;exitDx=0;exitDy=0;entryX=0.5;entryY=0;entryDx=0;entryDy=0;" edge="1" parent="1" source="18" target="17">
                    <mxGeometry relative="1" as="geometry"/>
                </mxCell>
                <mxCell id="18" value="E" style="rounded=0;whiteSpace=wrap;html=1;" vertex="1" parent="1">
                    <mxGeometry x="530" y="210" width="50" height="40" as="geometry"/>
                </mxCell>
                <mxCell id="31" style="edgeStyle=orthogonalEdgeStyle;curved=1;rounded=0;orthogonalLoop=1;jettySize=auto;html=1;exitX=0.25;exitY=1;exitDx=0;exitDy=0;entryX=0.75;entryY=1;entryDx=0;entryDy=0;" edge="1" parent="1" source="28" target="11">
                    <mxGeometry relative="1" as="geometry"/>
                </mxCell>
                <mxCell id="28" value="BC'" style="rounded=0;whiteSpace=wrap;html=1;" vertex="1" parent="1">
                    <mxGeometry x="480" y="320" width="100" height="40" as="geometry"/>
                </mxCell>
                <mxCell id="qEPF13SV7QiH63-_aZEo-35" value="" style="endArrow=none;dashed=1;html=1;dashPattern=1 3;strokeWidth=2;" edge="1" parent="1">
                    <mxGeometry width="50" height="50" relative="1" as="geometry">
                        <mxPoint x="270" y="475" as="sourcePoint"/>
                        <mxPoint x="270" y="10" as="targetPoint"/>
                    </mxGeometry>
                </mxCell>
                <mxCell id="qEPF13SV7QiH63-_aZEo-36" value="" style="endArrow=none;dashed=1;html=1;dashPattern=1 3;strokeWidth=2;" edge="1" parent="1">
                    <mxGeometry width="50" height="50" relative="1" as="geometry">
                        <mxPoint x="580" y="475" as="sourcePoint"/>
                        <mxPoint x="580" y="185" as="targetPoint"/>
                    </mxGeometry>
                </mxCell>
                <mxCell id="qEPF13SV7QiH63-_aZEo-37" value="状态一致" style="text;html=1;strokeColor=none;fillColor=none;align=center;verticalAlign=middle;whiteSpace=wrap;rounded=0;" vertex="1" parent="1">
                    <mxGeometry x="240" y="480" width="60" height="20" as="geometry"/>
                </mxCell>
                <mxCell id="qEPF13SV7QiH63-_aZEo-38" value="&lt;meta charset=&quot;utf-8&quot;&gt;&lt;span style=&quot;color: rgb(240, 240, 240); font-family: helvetica; font-size: 12px; font-style: normal; font-weight: 400; letter-spacing: normal; text-align: center; text-indent: 0px; text-transform: none; word-spacing: 0px; background-color: rgb(42, 42, 42); display: inline; float: none;&quot;&gt;状态一致&lt;/span&gt;" style="text;whiteSpace=wrap;html=1;" vertex="1" parent="1">
                    <mxGeometry x="550" y="480" width="70" height="30" as="geometry"/>
                </mxCell>
                <mxCell id="qEPF13SV7QiH63-_aZEo-39" value="A" style="rounded=0;whiteSpace=wrap;html=1;" vertex="1" parent="1">
                    <mxGeometry x="220" y="50.039999999999964" width="50" height="40" as="geometry"/>
                </mxCell>
                <mxCell id="qEPF13SV7QiH63-_aZEo-40" style="edgeStyle=orthogonalEdgeStyle;curved=1;rounded=0;orthogonalLoop=1;jettySize=auto;html=1;exitX=0.25;exitY=0;exitDx=0;exitDy=0;entryX=0.75;entryY=0;entryDx=0;entryDy=0;" edge="1" parent="1" source="qEPF13SV7QiH63-_aZEo-41" target="qEPF13SV7QiH63-_aZEo-39">
                    <mxGeometry relative="1" as="geometry">
                        <Array as="points">
                            <mxPoint x="283" y="30.039999999999964"/>
                            <mxPoint x="258" y="30.039999999999964"/>
                        </Array>
                    </mxGeometry>
                </mxCell>
                <mxCell id="qEPF13SV7QiH63-_aZEo-41" value="B" style="rounded=0;whiteSpace=wrap;html=1;" vertex="1" parent="1">
                    <mxGeometry x="270" y="50.039999999999964" width="50" height="40" as="geometry"/>
                </mxCell>
                <mxCell id="qEPF13SV7QiH63-_aZEo-43" style="edgeStyle=orthogonalEdgeStyle;curved=1;rounded=0;orthogonalLoop=1;jettySize=auto;html=1;exitX=0.25;exitY=0;exitDx=0;exitDy=0;entryX=0.75;entryY=0;entryDx=0;entryDy=0;" edge="1" parent="1" source="qEPF13SV7QiH63-_aZEo-45" target="qEPF13SV7QiH63-_aZEo-41">
                    <mxGeometry relative="1" as="geometry">
                        <Array as="points">
                            <mxPoint x="333" y="30.039999999999964"/>
                            <mxPoint x="308" y="30.039999999999964"/>
                        </Array>
                    </mxGeometry>
                </mxCell>
                <mxCell id="qEPF13SV7QiH63-_aZEo-44" style="rounded=0;orthogonalLoop=1;jettySize=auto;html=1;exitX=1;exitY=0.5;exitDx=0;exitDy=0;entryX=0;entryY=0.5;entryDx=0;entryDy=0;dashed=1;" edge="1" parent="1" source="qEPF13SV7QiH63-_aZEo-45" target="qEPF13SV7QiH63-_aZEo-48">
                    <mxGeometry relative="1" as="geometry"/>
                </mxCell>
                <mxCell id="qEPF13SV7QiH63-_aZEo-45" value="F'" style="rounded=0;whiteSpace=wrap;html=1;" vertex="1" parent="1">
                    <mxGeometry x="320" y="50.039999999999964" width="50" height="40" as="geometry"/>
                </mxCell>
                <mxCell id="qEPF13SV7QiH63-_aZEo-46" value="Client2 Stream" style="text;html=1;strokeColor=none;fillColor=none;align=center;verticalAlign=middle;whiteSpace=wrap;rounded=0;" vertex="1" parent="1">
                    <mxGeometry x="110" y="60.039999999999964" width="90" height="20" as="geometry"/>
                </mxCell>
                <mxCell id="qEPF13SV7QiH63-_aZEo-47" style="edgeStyle=orthogonalEdgeStyle;curved=1;rounded=0;orthogonalLoop=1;jettySize=auto;html=1;exitX=0.25;exitY=1;exitDx=0;exitDy=0;entryX=0.75;entryY=1;entryDx=0;entryDy=0;" edge="1" parent="1" source="qEPF13SV7QiH63-_aZEo-48" target="qEPF13SV7QiH63-_aZEo-45">
                    <mxGeometry relative="1" as="geometry"/>
                </mxCell>
                <mxCell id="qEPF13SV7QiH63-_aZEo-48" value="CDE'" style="rounded=0;whiteSpace=wrap;html=1;" vertex="1" parent="1">
                    <mxGeometry x="480" y="50.04" width="190" height="40" as="geometry"/>
                </mxCell>
                <mxCell id="-Xcwz0rziupP6aqTwU-e-36" style="edgeStyle=orthogonalEdgeStyle;curved=1;rounded=0;orthogonalLoop=1;jettySize=auto;html=1;exitX=0.25;exitY=0;exitDx=0;exitDy=0;entryX=0.75;entryY=0;entryDx=0;entryDy=0;" edge="1" parent="1" source="qEPF13SV7QiH63-_aZEo-49" target="18">
                    <mxGeometry relative="1" as="geometry"/>
                </mxCell>
                <mxCell id="qEPF13SV7QiH63-_aZEo-49" value="F" style="rounded=0;whiteSpace=wrap;html=1;" vertex="1" parent="1">
                    <mxGeometry x="620" y="210" width="50" height="40" as="geometry"/>
                </mxCell>
                <mxCell id="-Xcwz0rziupP6aqTwU-e-35" style="edgeStyle=orthogonalEdgeStyle;curved=1;rounded=0;orthogonalLoop=1;jettySize=auto;html=1;exitX=0.25;exitY=1;exitDx=0;exitDy=0;entryX=0.75;entryY=1;entryDx=0;entryDy=0;" edge="1" parent="1" source="qEPF13SV7QiH63-_aZEo-50" target="28">
                    <mxGeometry relative="1" as="geometry"/>
                </mxCell>
                <mxCell id="qEPF13SV7QiH63-_aZEo-50" value="F" style="rounded=0;whiteSpace=wrap;html=1;" vertex="1" parent="1">
                    <mxGeometry x="620" y="320" width="50" height="40" as="geometry"/>
                </mxCell>
                <mxCell id="qEPF13SV7QiH63-_aZEo-51" value="" style="endArrow=none;dashed=1;html=1;dashPattern=1 3;strokeWidth=2;" edge="1" parent="1">
                    <mxGeometry width="50" height="50" relative="1" as="geometry">
                        <mxPoint x="670" y="480" as="sourcePoint"/>
                        <mxPoint x="670" y="10" as="targetPoint"/>
                    </mxGeometry>
                </mxCell>
                <mxCell id="qEPF13SV7QiH63-_aZEo-52" value="&lt;meta charset=&quot;utf-8&quot;&gt;&lt;span style=&quot;color: rgb(240, 240, 240); font-family: helvetica; font-size: 12px; font-style: normal; font-weight: 400; letter-spacing: normal; text-align: center; text-indent: 0px; text-transform: none; word-spacing: 0px; background-color: rgb(42, 42, 42); display: inline; float: none;&quot;&gt;状态一致&lt;/span&gt;" style="text;whiteSpace=wrap;html=1;" vertex="1" parent="1">
                    <mxGeometry x="640" y="480" width="70" height="30" as="geometry"/>
                </mxCell>
                <mxCell id="-Xcwz0rziupP6aqTwU-e-37" value="基准&amp;nbsp; &amp;nbsp; &amp;nbsp; &amp;nbsp;&amp;nbsp;" style="triangle;whiteSpace=wrap;html=1;" vertex="1" parent="1">
                    <mxGeometry x="40" y="215" width="70" height="30" as="geometry"/>
                </mxCell>
            </root>
        </mxGraphModel>
    </diagram>
    <diagram id="raJPnAE5AzdNkHNpgBAG" name="rebase">
        <mxGraphModel dx="1673" dy="920" grid="1" gridSize="10" guides="1" tooltips="1" connect="1" arrows="1" fold="1" page="1" pageScale="1" pageWidth="827" pageHeight="1169" math="0" shadow="0">
            <root>
                <mxCell id="QF4M0W4L0wjTQOZ093rW-0"/>
                <mxCell id="QF4M0W4L0wjTQOZ093rW-1" parent="QF4M0W4L0wjTQOZ093rW-0"/>
                <mxCell id="5xosiaqXyhPnvReWhoe3-0" value="A" style="rounded=0;whiteSpace=wrap;html=1;" vertex="1" parent="QF4M0W4L0wjTQOZ093rW-1">
                    <mxGeometry x="30" y="568" width="50" height="40" as="geometry"/>
                </mxCell>
                <mxCell id="5xosiaqXyhPnvReWhoe3-1" style="edgeStyle=orthogonalEdgeStyle;rounded=0;orthogonalLoop=1;jettySize=auto;html=1;exitX=0;exitY=0.25;exitDx=0;exitDy=0;entryX=0.75;entryY=0;entryDx=0;entryDy=0;curved=1;" edge="1" parent="QF4M0W4L0wjTQOZ093rW-1" source="5xosiaqXyhPnvReWhoe3-2" target="5xosiaqXyhPnvReWhoe3-0">
                    <mxGeometry relative="1" as="geometry"/>
                </mxCell>
                <mxCell id="5xosiaqXyhPnvReWhoe3-2" value="B" style="rounded=0;whiteSpace=wrap;html=1;" vertex="1" parent="QF4M0W4L0wjTQOZ093rW-1">
                    <mxGeometry x="100" y="508" width="50" height="40" as="geometry"/>
                </mxCell>
                <mxCell id="5xosiaqXyhPnvReWhoe3-3" style="edgeStyle=orthogonalEdgeStyle;curved=1;rounded=0;orthogonalLoop=1;jettySize=auto;html=1;exitX=0.25;exitY=0;exitDx=0;exitDy=0;entryX=0.75;entryY=0;entryDx=0;entryDy=0;" edge="1" parent="QF4M0W4L0wjTQOZ093rW-1" source="5xosiaqXyhPnvReWhoe3-5" target="5xosiaqXyhPnvReWhoe3-2">
                    <mxGeometry relative="1" as="geometry">
                        <Array as="points">
                            <mxPoint x="163" y="488"/>
                            <mxPoint x="138" y="488"/>
                        </Array>
                    </mxGeometry>
                </mxCell>
                <mxCell id="5xosiaqXyhPnvReWhoe3-5" value="C" style="rounded=0;whiteSpace=wrap;html=1;" vertex="1" parent="QF4M0W4L0wjTQOZ093rW-1">
                    <mxGeometry x="150" y="508" width="50" height="40" as="geometry"/>
                </mxCell>
                <mxCell id="F0SQD46kWQ-mJrYjyWG3-4" style="edgeStyle=orthogonalEdgeStyle;rounded=0;orthogonalLoop=1;jettySize=auto;html=1;exitX=0;exitY=0.25;exitDx=0;exitDy=0;entryX=0.75;entryY=1;entryDx=0;entryDy=0;curved=1;" edge="1" parent="QF4M0W4L0wjTQOZ093rW-1" source="F0SQD46kWQ-mJrYjyWG3-0" target="5xosiaqXyhPnvReWhoe3-0">
                    <mxGeometry relative="1" as="geometry">
                        <mxPoint x="70" y="618" as="targetPoint"/>
                    </mxGeometry>
                </mxCell>
                <mxCell id="F0SQD46kWQ-mJrYjyWG3-0" value="D" style="rounded=0;whiteSpace=wrap;html=1;" vertex="1" parent="QF4M0W4L0wjTQOZ093rW-1">
                    <mxGeometry x="102.5" y="640.14" width="50" height="40" as="geometry"/>
                </mxCell>
                <mxCell id="F0SQD46kWQ-mJrYjyWG3-2" style="edgeStyle=orthogonalEdgeStyle;curved=1;rounded=0;orthogonalLoop=1;jettySize=auto;html=1;exitX=0.25;exitY=0;exitDx=0;exitDy=0;entryX=0.75;entryY=0;entryDx=0;entryDy=0;" edge="1" parent="QF4M0W4L0wjTQOZ093rW-1" source="F0SQD46kWQ-mJrYjyWG3-3" target="F0SQD46kWQ-mJrYjyWG3-0">
                    <mxGeometry relative="1" as="geometry">
                        <Array as="points">
                            <mxPoint x="165.5" y="620.14"/>
                            <mxPoint x="140.5" y="620.14"/>
                        </Array>
                    </mxGeometry>
                </mxCell>
                <mxCell id="F0SQD46kWQ-mJrYjyWG3-3" value="E" style="rounded=0;whiteSpace=wrap;html=1;" vertex="1" parent="QF4M0W4L0wjTQOZ093rW-1">
                    <mxGeometry x="152.5" y="640.14" width="50" height="40" as="geometry"/>
                </mxCell>
                <mxCell id="F0SQD46kWQ-mJrYjyWG3-5" value="A" style="rounded=0;whiteSpace=wrap;html=1;" vertex="1" parent="QF4M0W4L0wjTQOZ093rW-1">
                    <mxGeometry x="260" y="568" width="50" height="40" as="geometry"/>
                </mxCell>
                <mxCell id="F0SQD46kWQ-mJrYjyWG3-6" style="edgeStyle=orthogonalEdgeStyle;rounded=0;orthogonalLoop=1;jettySize=auto;html=1;exitX=0;exitY=0.25;exitDx=0;exitDy=0;entryX=0.75;entryY=0;entryDx=0;entryDy=0;curved=1;" edge="1" parent="QF4M0W4L0wjTQOZ093rW-1" source="F0SQD46kWQ-mJrYjyWG3-7" target="F0SQD46kWQ-mJrYjyWG3-5">
                    <mxGeometry relative="1" as="geometry"/>
                </mxCell>
                <mxCell id="F0SQD46kWQ-mJrYjyWG3-7" value="B" style="rounded=0;whiteSpace=wrap;html=1;" vertex="1" parent="QF4M0W4L0wjTQOZ093rW-1">
                    <mxGeometry x="330" y="508" width="50" height="40" as="geometry"/>
                </mxCell>
                <mxCell id="F0SQD46kWQ-mJrYjyWG3-8" style="edgeStyle=orthogonalEdgeStyle;curved=1;rounded=0;orthogonalLoop=1;jettySize=auto;html=1;exitX=0.25;exitY=0;exitDx=0;exitDy=0;entryX=0.75;entryY=0;entryDx=0;entryDy=0;" edge="1" parent="QF4M0W4L0wjTQOZ093rW-1" source="F0SQD46kWQ-mJrYjyWG3-9" target="F0SQD46kWQ-mJrYjyWG3-7">
                    <mxGeometry relative="1" as="geometry">
                        <Array as="points">
                            <mxPoint x="393" y="488"/>
                            <mxPoint x="368" y="488"/>
                        </Array>
                    </mxGeometry>
                </mxCell>
                <mxCell id="F0SQD46kWQ-mJrYjyWG3-9" value="C" style="rounded=0;whiteSpace=wrap;html=1;" vertex="1" parent="QF4M0W4L0wjTQOZ093rW-1">
                    <mxGeometry x="380" y="508" width="50" height="40" as="geometry"/>
                </mxCell>
                <mxCell id="F0SQD46kWQ-mJrYjyWG3-10" style="edgeStyle=orthogonalEdgeStyle;rounded=0;orthogonalLoop=1;jettySize=auto;html=1;exitX=0;exitY=0.25;exitDx=0;exitDy=0;entryX=0.75;entryY=1;entryDx=0;entryDy=0;curved=1;" edge="1" parent="QF4M0W4L0wjTQOZ093rW-1" source="F0SQD46kWQ-mJrYjyWG3-11" target="F0SQD46kWQ-mJrYjyWG3-5">
                    <mxGeometry relative="1" as="geometry">
                        <mxPoint x="300" y="618" as="targetPoint"/>
                    </mxGeometry>
                </mxCell>
                <mxCell id="F0SQD46kWQ-mJrYjyWG3-11" value="D" style="rounded=0;whiteSpace=wrap;html=1;" vertex="1" parent="QF4M0W4L0wjTQOZ093rW-1">
                    <mxGeometry x="332.5" y="640.14" width="50" height="40" as="geometry"/>
                </mxCell>
                <mxCell id="F0SQD46kWQ-mJrYjyWG3-14" style="edgeStyle=orthogonalEdgeStyle;curved=1;rounded=0;orthogonalLoop=1;jettySize=auto;html=1;exitX=0;exitY=0.25;exitDx=0;exitDy=0;" edge="1" parent="QF4M0W4L0wjTQOZ093rW-1" source="F0SQD46kWQ-mJrYjyWG3-13">
                    <mxGeometry relative="1" as="geometry">
                        <mxPoint x="283" y="610" as="targetPoint"/>
                    </mxGeometry>
                </mxCell>
                <mxCell id="F0SQD46kWQ-mJrYjyWG3-13" value="E" style="rounded=0;whiteSpace=wrap;html=1;" vertex="1" parent="QF4M0W4L0wjTQOZ093rW-1">
                    <mxGeometry x="330" y="710" width="50" height="40" as="geometry"/>
                </mxCell>
                <mxCell id="F0SQD46kWQ-mJrYjyWG3-16" value="A" style="rounded=0;whiteSpace=wrap;html=1;" vertex="1" parent="QF4M0W4L0wjTQOZ093rW-1">
                    <mxGeometry x="450" y="568" width="50" height="40" as="geometry"/>
                </mxCell>
                <mxCell id="F0SQD46kWQ-mJrYjyWG3-17" style="edgeStyle=orthogonalEdgeStyle;rounded=0;orthogonalLoop=1;jettySize=auto;html=1;exitX=0;exitY=0.25;exitDx=0;exitDy=0;entryX=0.75;entryY=0;entryDx=0;entryDy=0;curved=1;" edge="1" parent="QF4M0W4L0wjTQOZ093rW-1" source="F0SQD46kWQ-mJrYjyWG3-18" target="F0SQD46kWQ-mJrYjyWG3-16">
                    <mxGeometry relative="1" as="geometry"/>
                </mxCell>
                <mxCell id="F0SQD46kWQ-mJrYjyWG3-18" value="B" style="rounded=0;whiteSpace=wrap;html=1;" vertex="1" parent="QF4M0W4L0wjTQOZ093rW-1">
                    <mxGeometry x="520" y="508" width="50" height="40" as="geometry"/>
                </mxCell>
                <mxCell id="F0SQD46kWQ-mJrYjyWG3-19" style="edgeStyle=orthogonalEdgeStyle;curved=1;rounded=0;orthogonalLoop=1;jettySize=auto;html=1;exitX=0.25;exitY=0;exitDx=0;exitDy=0;entryX=0.75;entryY=0;entryDx=0;entryDy=0;" edge="1" parent="QF4M0W4L0wjTQOZ093rW-1" source="F0SQD46kWQ-mJrYjyWG3-20" target="F0SQD46kWQ-mJrYjyWG3-18">
                    <mxGeometry relative="1" as="geometry">
                        <Array as="points">
                            <mxPoint x="583" y="488"/>
                            <mxPoint x="558" y="488"/>
                        </Array>
                    </mxGeometry>
                </mxCell>
                <mxCell id="F0SQD46kWQ-mJrYjyWG3-20" value="C" style="rounded=0;whiteSpace=wrap;html=1;" vertex="1" parent="QF4M0W4L0wjTQOZ093rW-1">
                    <mxGeometry x="570" y="508" width="50" height="40" as="geometry"/>
                </mxCell>
                <mxCell id="F0SQD46kWQ-mJrYjyWG3-21" style="edgeStyle=orthogonalEdgeStyle;rounded=0;orthogonalLoop=1;jettySize=auto;html=1;exitX=0.25;exitY=0;exitDx=0;exitDy=0;entryX=0.75;entryY=0;entryDx=0;entryDy=0;curved=1;" edge="1" parent="QF4M0W4L0wjTQOZ093rW-1" source="F0SQD46kWQ-mJrYjyWG3-22" target="F0SQD46kWQ-mJrYjyWG3-20">
                    <mxGeometry relative="1" as="geometry">
                        <mxPoint x="490" y="618" as="targetPoint"/>
                    </mxGeometry>
                </mxCell>
                <mxCell id="F0SQD46kWQ-mJrYjyWG3-22" value="D'" style="rounded=0;whiteSpace=wrap;html=1;" vertex="1" parent="QF4M0W4L0wjTQOZ093rW-1">
                    <mxGeometry x="640" y="508" width="50" height="40" as="geometry"/>
                </mxCell>
                <mxCell id="F0SQD46kWQ-mJrYjyWG3-23" style="edgeStyle=orthogonalEdgeStyle;curved=1;rounded=0;orthogonalLoop=1;jettySize=auto;html=1;exitX=0.25;exitY=0;exitDx=0;exitDy=0;entryX=0.75;entryY=0;entryDx=0;entryDy=0;" edge="1" parent="QF4M0W4L0wjTQOZ093rW-1" source="F0SQD46kWQ-mJrYjyWG3-24" target="F0SQD46kWQ-mJrYjyWG3-22">
                    <mxGeometry relative="1" as="geometry">
                        <mxPoint x="473" y="610" as="targetPoint"/>
                    </mxGeometry>
                </mxCell>
                <mxCell id="F0SQD46kWQ-mJrYjyWG3-24" value="E'" style="rounded=0;whiteSpace=wrap;html=1;" vertex="1" parent="QF4M0W4L0wjTQOZ093rW-1">
                    <mxGeometry x="710" y="508" width="50" height="40" as="geometry"/>
                </mxCell>
            </root>
        </mxGraphModel>
    </diagram>
</mxfile>